<?xml version="1.0" encoding="UTF-8" standalone="no"?>
<svg width="163px" height="163px" viewBox="0 0 163 163" version="1.1" xmlns="http://www.w3.org/2000/svg" xmlns:xlink="http://www.w3.org/1999/xlink" xmlns:sketch="http://www.bohemiancoding.com/sketch/ns">
    <!-- Generator: Sketch 3.0.4 (8053) - http://www.bohemiancoding.com/sketch -->
    <title>smedresmanlaw 2</title>
    <desc>Created with Sketch.</desc>
    <defs></defs>
    <g id="Page-2" stroke="none" stroke-width="1" fill="none" fill-rule="evenodd" sketch:type="MSPage">
        <circle id="O-3" stroke="#43414A" stroke-width="3" sketch:type="MSShapeGroup" cx="81.5" cy="81.5" r="79.5"></circle>
        <g id="icon---bike-wheel-2" sketch:type="MSLayerGroup" transform="translate(34.000000, 35.000000)" fill="#43414A">
            <path d="M77.6800434,25.111039 C77.4180043,24.9391775 77.1546638,24.7686147 76.8902386,24.5984848 C76.6260304,24.428355 76.3600868,24.2595238 76.097397,24.0867965 C75.0238612,23.3805195 73.9835141,22.624026 72.991757,21.8069264 C71.8691974,20.8822511 70.8748373,19.8556277 69.8481562,18.8313853 C65.5097614,13.8530303 62.472885,7.79242424 56.4520607,4.81125541 C55.0390456,4.1461039 53.5867679,3.61904762 52.10282,3.21818182 C47.65141,2.03528139 42.9169197,1.98917749 37.8824295,3.67640693 C35.8826464,4.21168831 33.9208243,4.87575758 32.0110629,5.66515152 C26.2817787,8.03311688 21.0203905,11.5279221 16.5032538,16.0352814 C7.4691974,25.0495671 2.49392625,37.0350649 2.49392625,49.7835498 C2.49392625,62.5320346 7.46941432,74.5175325 16.5034707,83.5322511 C25.5375271,92.5469697 37.5492408,97.5114719 50.3253796,97.5114719 C63.1015184,97.5114719 75.1130152,92.5467532 84.1472885,83.5322511 C88.6644252,79.0248918 92.1668113,73.7748918 94.5399132,68.0582251 C95.3310195,66.1525974 95.9958785,64.1952381 96.5062907,62.2077922 C97.613449,58.4614719 97.8598698,54.5019481 97.3329718,50.6367965 C96.8110629,46.8077922 95.556833,43.0963203 93.7939262,39.6621212 C93.0156182,38.145671 92.1960954,36.6242424 91.1093275,35.3028139 C89.84859,33.7699134 88.3184382,32.6222944 86.7655098,31.4112554 C86.5490239,31.2424242 86.3316703,31.0742424 86.1143167,30.9062771 C85.8967462,30.7385281 85.6791757,30.5707792 85.4616052,30.4030303 C83.29718,28.7878788 80.9110629,27.2727273 78.6744035,25.762987 C78.3438178,25.545671 78.0119306,25.3285714 77.6800434,25.111039 L77.6800434,25.111039 Z M92.0136659,48.3134199 C83.7310195,48.2683983 75.4880694,47.8354978 67.462039,46.969697 C68.4381779,46.3924242 69.4021692,45.7792208 70.3613883,45.1489177 C71.3203905,44.5186147 72.3240781,43.8742424 73.318872,43.2900433 C77.2791757,40.9647186 80.8370933,38.2292208 85.245987,36.7989177 C86.1299349,36.5121212 86.8221258,37.2294372 87.4798265,38.3090909 C88.1375271,39.3887446 88.7479393,40.7909091 89.4262473,41.7549784 C90.5577007,43.8233766 91.4321041,46.0132035 92.0136659,48.3134199 L92.0136659,48.3134199 Z M84.7852495,35.278355 C80.6941432,37.8787879 76.7895879,40.9090909 72.5718004,43.2645022 C71.5112798,43.8664502 70.4327549,44.4320346 69.3299349,44.9463203 C68.2273319,45.4606061 67.1004338,45.9235931 65.9436009,46.3203463 C63.9913232,46.969697 61.3882863,45.6709957 59.0021692,45.4545455 C59.3275488,44.4805195 59.5986985,43.2900433 59.9511931,42.2619048 C60.3036876,41.2337662 60.7375271,40.3679654 61.3856833,40.0458874 C67.1726681,37.1575758 73.6429501,36.3235931 79.4013015,33.6645022 C79.7611714,33.4982684 80.1182213,33.3248918 80.4722343,33.1437229 C80.9110629,32.9004329 81.3449024,32.4675325 82.1023861,32.9859307 C82.2928416,33.1257576 82.481128,33.2679654 82.6670282,33.4127706 C83.4110629,33.9922078 84.1186551,34.6127706 84.7852495,35.278355 L84.7852495,35.278355 Z M57.0566161,48.0313853 C55.7483731,47.6190476 55.7483731,46.7532468 55.5314534,45.4545455 C56.1822126,45.8874459 57.2668113,45.4545455 57.8683297,45.9155844 L57.0566161,48.0313853 L57.0566161,48.0313853 Z M57.5106291,49.2225108 L59.6288503,50.7002165 L57.6529284,51.9980519 L56.9340564,50.721645 L57.5106291,49.2225108 L57.5106291,49.2225108 Z M55.3652928,44.6612554 C53.5791757,41.1255411 57.483731,40.9090909 60.0867679,40.04329 C59.4360087,41.7748918 58.7852495,43.5064935 58.1316703,45.2287879 L55.3652928,44.6612554 L55.3652928,44.6612554 Z M56.054013,54.1538961 C57.483731,52.5974026 58.1344902,53.8961039 58.7852495,55.4112554 C57.9175705,55.1948052 56.8329718,55.8441558 56.0338395,55.5816017 L56.054013,54.1538961 L56.054013,54.1538961 Z M59.118872,56.2329004 C60.3036876,58.4415584 61.1713666,60.6060606 62.472885,62.5541126 C59.6529284,61.038961 54.8806941,60.6060606 56.0147505,56.4320346 L59.118872,56.2329004 L59.118872,56.2329004 Z M58.0774403,52.7519481 C60.7375271,49.5670996 63.7744035,53.8961039 66.3774403,55.1948052 C64.208243,55.1948052 61.8221258,55.1948052 59.5501085,55.380303 L58.0774403,52.7519481 L58.0774403,52.7519481 Z M60.2754881,50.287013 C58.1344902,49.5670996 56.8329718,47.4025974 59.0021692,46.3203463 C60.7375271,45.6709957 63.1236443,47.1861472 65.2338395,47.2666667 L60.2754881,50.287013 L60.2754881,50.287013 Z M80.8477223,32.1493506 C80.5175705,32.3311688 80.1848156,32.5077922 79.8481562,32.6811688 C79.5114967,32.8545455 79.1711497,33.0246753 78.8286334,33.1900433 C73.3455531,35.8372294 67.3898048,37.2054113 61.6052061,38.7448052 C63.340564,33.55 65.7266811,28.571645 67.8958785,23.59329 C70.021692,25.4114719 72.2537961,27.0175325 74.5997831,28.4484848 C74.9349241,28.6528139 75.2722343,28.8536797 75.6104121,29.0528139 C77.0065076,30.0865801 78.5249458,30.7359307 80.0561822,31.6647186 C80.3219089,31.8246753 80.5861171,31.9859307 80.8477223,32.1493506 L80.8477223,32.1493506 Z M67.4633406,23.0406926 C64.8590022,28.1385281 63.5574837,33.982684 60.0848156,38.9632035 C59.6529284,39.502381 58.7852495,39.8809524 57.7819957,40.1785714 C56.7787419,40.4761905 55.6399132,40.6926407 54.6637744,40.9090909 C54.4468547,39.7186147 54.0672451,38.4199134 53.8232104,37.202381 C53.5791757,35.9848485 53.4707158,34.8484848 53.7958785,33.9831169 C55.9652928,28.1385281 60.7375271,24.025974 64.3195228,19.324026 C65.3563991,20.5974026 66.4019523,21.8445887 67.4633406,23.0406926 L67.4633406,23.0406926 Z M50.9305857,42.2274892 C49.8915401,42.8571429 49.0238612,42.4242424 48.1561822,41.7748918 C48.5900217,41.1255411 49.0238612,40.4761905 49.3505423,39.9348485 L50.9305857,42.2274892 L50.9305857,42.2274892 Z M49.7683297,39.2961039 C50.7592191,37.8787879 51.8438178,36.1471861 52.9284165,34.6320346 C52.7114967,37.4458874 55.7483731,41.5584416 51.6123644,41.9746753 L49.7683297,39.2961039 L49.7683297,39.2961039 Z M47.4236443,41.3411255 C43.1670282,40.4761905 45.1193059,36.1471861 44.9023861,33.1168831 C46.2039046,35.0649351 47.505423,37.012987 48.8347072,39.1694805 L47.4236443,41.3411255 L47.4236443,41.3411255 Z M47.0075922,41.9867965 C46.637744,43.0735931 45.3362256,43.5064935 44.6854664,42.8571429 C44.0347072,42.6406926 44.9023861,41.5584416 44.6425163,40.6844156 L47.0075922,41.9867965 L47.0075922,41.9867965 Z M47.4509761,58.3926407 L49.3201735,61.0638528 L45.30282,66.817316 L44.6895879,59.6867965 L47.4509761,58.3926407 L47.4509761,58.3926407 Z M44.6106291,58.767316 L44.3709328,55.9891775 C45.7700651,55.6277056 46.4208243,56.7099567 46.945987,57.6718615 L44.6106291,58.767316 L44.6106291,58.767316 Z M48.2427332,58.0183983 C49.2407809,57.3593074 50.5422993,57.1428571 50.9761388,58.2251082 C51.1930586,58.8744589 50.1084599,59.5238095 49.8472885,60.3062771 L48.2427332,58.0183983 L48.2427332,58.0183983 Z M52.0800434,58.561039 L55.0214751,59.9439394 L54.4819957,66.9329004 L50.3772234,61.0632035 L52.0800434,58.561039 L52.0800434,58.561039 Z M52.5557484,57.8422078 C52.9284165,56.7099567 54.2299349,56.0606061 54.8806941,56.7099567 C55.3145336,57.1428571 55.0976139,58.2251082 55.070282,59.0281385 L52.5557484,57.8422078 L52.5557484,57.8422078 Z M50.2227766,54.980303 C47.413449,54.9738095 45.0843818,52.647619 45.0247289,49.7820346 C44.9403471,46.9333333 47.0295011,44.728355 49.6529284,44.9376623 C52.2763557,45.1469697 54.5950108,47.4800866 54.8373102,50.1471861 C55.0793926,52.8140693 53.0023861,55.0084416 50.2227766,54.980303 L50.2227766,54.980303 Z M53.2223427,44.2235931 L52.1177874,42.6893939 L54.1021692,41.9837662 L54.5700651,44.4978355 L53.2223427,44.2235931 L53.2223427,44.2235931 Z M63.756833,18.5876623 C60.0867679,22.9437229 56.6160521,27.7056277 53.362256,32.4675325 C52.291757,24.5621212 52.2776573,16.4502165 52.2776573,8.22510823 C55.9652928,9.52380952 58.7852495,12.1212121 61.2203905,15.2348485 C62.0830803,16.3205628 62.9264642,17.4445887 63.756833,18.5876623 L63.756833,18.5876623 Z M49.4136659,7.60930736 C50.1084599,7.79220779 51.1930586,7.79220779 51.1930586,8.00865801 C51.3015184,9.41558442 51.4303688,10.8209957 51.4993492,12.2298701 C51.8438178,19.2640693 52.2776573,26.4069264 52.2776573,33.3333333 C52.2776573,34.1991342 51.7895879,35.0649351 51.1659436,35.9307359 C50.5422993,36.7965368 49.7830803,37.6623377 49.2407809,38.5281385 C47.9392625,36.1471861 45.5531453,34.1991342 45.3362256,31.8181818 C44.6854664,23.5930736 46.2039046,15.5844156 47.3197397,7.32922078 C48.0193059,7.39307359 48.7180043,7.48419913 49.4136659,7.60930736 L49.4136659,7.60930736 Z M46.5353579,7.27402597 C45.3362256,15.1515152 44.9023861,22.9437229 44.2516269,30.7359307 C40.3828633,24.0967532 34.9240781,17.5324675 32.1041215,10.8225108 C33.4056399,9.74025974 36.0086768,8.87445887 38.9711497,8.12965368 C41.5019523,7.47012987 44.0229935,7.18852814 46.5353579,7.27402597 L46.5353579,7.27402597 Z M30.7885033,11.2588745 C30.7885033,11.2588745 31.716269,12.4967532 33.0021692,14.4255411 C37.0932755,20.5627706 40.1301518,25.3246753 43.8177874,32.034632 C44.8451193,33.9038961 44.2516269,36.7965368 43.8177874,39.3939394 C41.64859,37.8787879 38.6117137,37.6623377 37.0932755,35.2813853 C34.9240781,32.034632 33.6225597,28.3549784 31.9149675,24.7588745 C30.6110629,21.9774892 29.30282,19.1952381 28.3219089,17.1084416 C27.3409978,15.021645 26.6867679,13.6307359 26.6867679,13.6307359 C28.0062907,12.7686147 29.3746204,11.9757576 30.7885033,11.2588745 L30.7885033,11.2588745 Z M41.6735358,50.9958874 L39.5603037,49.5238095 L41.8123644,47.9233766 L42.4529284,49.2733766 L41.6735358,50.9958874 L41.6735358,50.9958874 Z M43.2494577,53.1461039 L43.4184382,55.0391775 L40.8455531,54.8207792 L42.0266811,52.2945887 L43.2494577,53.1461039 L43.2494577,53.1461039 Z M38.802603,48.9967532 L33.037961,44.9883117 L40.1316703,44.3703463 L41.435141,47.1279221 L38.802603,48.9967532 L38.802603,48.9967532 Z M38.8041215,50.052381 L41.3056399,51.7926407 L39.9240781,54.7424242 L32.9219089,54.147619 L38.8041215,50.052381 L38.8041215,50.052381 Z M40.4533623,55.6564935 L43.4943601,55.9149351 L43.7733189,59.1593074 L37.4112798,62.1376623 L40.4533623,55.6564935 L40.4533623,55.6564935 Z M43.6052061,45.5564935 L42.129718,46.6261905 L41.0245119,44.29329 L43.6806941,44.0885281 L43.6052061,45.5564935 L43.6052061,45.5564935 Z M40.6303688,43.4580087 C39.4793926,41.3419913 38.6117137,39.1774892 37.7440347,37.012987 C40.1301518,39.1774892 44.9023861,39.1774892 43.7227766,43.2268398 L40.6303688,43.4580087 L40.6303688,43.4580087 Z M25.956833,14.1168831 C25.956833,14.1168831 26.5798265,15.4417749 27.5140998,17.4290043 C28.4483731,19.4162338 29.6941432,22.0660173 30.9390456,24.7158009 C32.537961,28.1385281 34.0563991,31.6017316 35.791757,35.0649351 C34.4902386,35.0649351 33.6225597,33.982684 32.5932755,33.7599567 C30.6043384,32.8290043 27.9449024,31.5861472 25.2854664,30.34329 C19.9665944,27.8575758 14.6477223,25.3720779 14.6477223,25.3720779 C17.6887202,20.961039 21.5277657,17.1393939 25.956833,14.1168831 L25.956833,14.1168831 Z M14.1579176,26.0991342 C14.1579176,26.0991342 19.743167,28.7093074 25.3286334,31.3194805 C28.1212581,32.6246753 30.9140998,33.9296537 33.0069414,34.9082251 C37.0932755,35.7142857 38.1778742,40.04329 39.737961,43.5348485 L31.9249458,44.2145022 L11.7629067,30.1971861 C12.486551,28.7841991 13.2880694,27.417316 14.1579176,26.0991342 L14.1579176,26.0991342 Z M11.3722343,30.9807359 L30.5737527,44.330303 L7.18763557,46.332684 C7.62255965,40.8681818 9.08112798,35.6872294 11.3722343,30.9807359 L11.3722343,30.9807359 Z M7.04924078,49.7835498 C7.04924078,48.9181818 7.07787419,48.0595238 7.12841649,47.20671 L31.686551,45.1038961 L38.0453362,49.5246753 L31.5704989,54.0324675 L7.10368764,51.9538961 C7.06789588,51.2350649 7.04924078,50.5114719 7.04924078,49.7835498 L7.04924078,49.7835498 Z M7.15813449,52.8277056 L30.4581345,54.8071429 L11.1963124,68.2175325 C8.9516269,63.4924242 7.54208243,58.2993506 7.15813449,52.8277056 L7.15813449,52.8277056 Z M11.581128,69.0054113 L31.8095445,54.9220779 L39.5318872,55.5781385 L36.1835141,62.7121212 L13.9336226,73.1281385 C13.0763557,71.8021645 12.2915401,70.4253247 11.581128,69.0054113 L11.581128,69.0054113 Z M14.4160521,73.858658 L35.6084599,63.9378788 L25.6208243,85.217316 C21.221692,82.154329 17.4158351,78.2993506 14.4160521,73.858658 L14.4160521,73.858658 Z M26.3462039,85.7127706 L36.8360087,63.3632035 L43.8522777,60.0785714 L44.5273319,67.9277056 L30.4266811,88.1220779 C29.0197397,87.3919913 27.6579176,86.5872294 26.3462039,85.7127706 L26.3462039,85.7127706 Z M31.2084599,88.5168831 L44.6433839,69.2761905 L46.6672451,92.8103896 C41.1583514,92.3478355 35.940564,90.8517316 31.2084599,88.5168831 L31.2084599,88.5168831 Z M50.3253796,92.9660173 C49.3906725,92.9660173 48.4637744,92.9329004 47.5436009,92.8742424 L45.418872,68.165368 L49.8492408,61.8203463 L54.3670282,68.2813853 L52.2646421,92.9205628 C51.6214751,92.9489177 50.9754881,92.9660173 50.3253796,92.9660173 L50.3253796,92.9660173 Z M53.1394794,92.8722944 L55.1429501,69.3915584 L68.7496746,88.8510823 C63.9596529,91.1095238 58.6906725,92.5149351 53.1394794,92.8722944 L53.1394794,92.8722944 Z M69.5403471,88.4681818 L55.2583514,68.0428571 L55.8563991,60.3359307 C59.2190889,61.9047619 63.5574837,62.7705628 64.7145336,67.1900433 C65.7071584,69.297619 67.0279826,72.1071429 68.3488069,74.9164502 C70.9906725,80.5354978 73.632538,86.154329 73.632538,86.154329 C72.3158351,86.9974026 70.9488069,87.7686147 69.5403471,88.4681818 L69.5403471,88.4681818 Z M74.3646421,85.6731602 C74.3646421,85.6731602 71.8468547,80.3179654 69.3290672,74.962987 C68.070282,72.2854978 66.8112798,69.6077922 65.8659436,67.5993506 C65.2928416,66.4502165 64.8590022,65.3679654 64.4251627,64.2857143 C67.8958785,66.017316 71.5835141,67.5324675 75.0939262,69.3004329 C77.7954447,70.5623377 80.4956616,71.8242424 82.5210412,72.7707792 C84.5462039,73.717316 85.8965293,74.3482684 85.8965293,74.3482684 C82.7969631,78.8030303 78.881128,82.6510823 74.3646421,85.6731602 L74.3646421,85.6731602 Z M86.3904555,73.6229437 C86.3904555,73.6229437 84.9733189,72.9606061 82.8477223,71.967316 C80.7221258,70.974026 77.8880694,69.6495671 75.0442516,68.3248918 C71.1496746,66.6666667 67.0281996,65.3679654 63.7744035,62.7705628 C62.0390456,61.2554113 61.3882863,58.4415584 60.0867679,56.2770563 C62.472885,56.0606061 65.2928416,55.4112554 67.2451193,56.0606061 C73.9696312,58.8744589 79.6095445,63.4199134 85.5696312,67.3666667 C87.4924078,68.7012987 88.7724512,69.591342 88.7724512,69.591342 C88.0503254,70.9809524 87.2542299,72.3261905 86.3904555,73.6229437 L86.3904555,73.6229437 Z M89.1670282,68.8103896 C82.6464208,64.2857143 75.7049892,59.95671 68.7635575,55.8441558 C76.7895879,55.4112554 84.8156182,54.5454545 92.8416486,53.8961039 C92.6247289,56.4935065 92.6247289,59.0909091 91.9041215,61.3725108 C91.2848156,63.9181818 90.3457701,66.4220779 89.1670282,68.8103896 L89.1670282,68.8103896 Z M67.6075922,55.0536797 C65.2928416,53.6796537 63.340564,52.1645022 60.9544469,50.8658009 C62.9067245,49.7835498 64.6420824,47.6190476 66.5943601,47.8354978 C75.0542299,48.2683983 83.5140998,48.0519481 92.1908894,49.5670996 C92.6247289,49.5670996 92.8416486,52.5974026 92.4078091,52.5974026 C85.6832972,54.7619048 78.5249458,54.3290043 71.3715835,54.8885281 C69.1032538,54.9945887 67.6075922,55.0536797 67.6075922,55.0536797 L67.6075922,55.0536797 Z" id="Shape" sketch:type="MSShapeGroup"></path>
            <path d="M79.7331887,22.9790043 C72.0173536,18.6147186 68.329718,10.1731602 61.3882863,4.54545455 C60.3036876,3.67965368 59.0021692,3.03030303 57.7370933,2.48073593 C56.481128,1.92229437 55.2006508,1.4534632 53.8986985,1.07359307 C48.6906725,-0.446320346 43.1373102,-0.597402597 37.2655098,1.37662338 C35.162039,1.93787879 33.102603,2.63528139 31.0976139,3.46385281 C25.0826464,5.95 19.5587852,9.61904762 14.816269,14.3512987 C5.33123644,23.8155844 0.107809111,36.3989177 0.107809111,49.7835498 C0.107809111,63.1681818 5.33145336,75.7517316 14.816269,85.2158009 C24.3010846,94.680303 36.9119306,99.8924242 50.3255965,99.8924242 C63.7392625,99.8924242 76.3501085,94.680303 85.8347072,85.2158009 C90.5772234,80.4837662 94.2542299,74.9718615 96.7457701,68.969697 C97.5763557,66.9690476 98.2750542,64.9138528 98.8329718,62.8166667 C100.826464,55.7588745 100.250759,48.6045455 97.8030369,42.0753247 C96.9872017,39.8989177 95.9631236,37.7919913 94.7561822,35.7822511 C94.1149675,34.7911255 93.4577007,33.804329 92.772885,32.8374459 C92.6017354,32.595671 92.4286334,32.3551948 92.2533623,32.1162338 C90.2386117,29.6536797 87.6355748,27.7056277 85.0550976,25.9521645 C84.7644252,25.7902597 84.4724512,25.6296537 84.1819957,25.4683983 C83.6010846,25.145671 83.0264642,24.8194805 82.4707158,24.4768398 C81.5661605,23.9831169 80.65141,23.487013 79.7331887,22.9790043 L79.7331887,22.9790043 Z M50.3253796,98.3772727 C23.4726681,98.3772727 1.62624729,76.5781385 1.62624729,49.7835498 C1.62624729,31.0272727 12.3310195,14.7188312 27.9644252,6.62186147 C30.1978308,5.46515152 32.5316703,4.47597403 34.9494577,3.67121212 C41.1796095,1.40064935 46.9911063,1.23982684 52.4308026,2.53961039 C53.7906725,2.86450216 55.1275488,3.28398268 56.4392625,3.80108225 C59.8698482,4.97835498 62.472885,7.57575758 64.8590022,10.1731602 C68.1127983,14.2857143 70.9327549,18.1818182 75.0542299,21.4285714 C78.308026,23.8636364 81.5186551,25.9699134 84.608026,28.311039 C84.9169197,28.5452381 85.2245119,28.7816017 85.5295011,29.0218615 C86.7678959,30.0865801 88.0694143,30.952381 89.1418655,32.0692641 C89.4368764,32.3409091 89.7301518,32.6177489 90.021692,32.9004329 C91.3253796,34.1636364 91.991757,35.130303 92.8416486,36.1471861 C99.5481562,44.1707792 100,55.4112554 96.537744,65.1264069 C95.7312364,67.5387446 94.7399132,69.8677489 93.5806941,72.0961039 C85.4661605,87.695671 69.1223427,98.3772727 50.3253796,98.3772727 L50.3253796,98.3772727 Z" id="Shape" sketch:type="MSShapeGroup"></path>
            <path d="M49.9151844,48.617316 C48.5900217,48.4848485 48.5900217,50.2164502 49.4577007,50.8658009 C50.1084599,51.2987013 51.4099783,51.0822511 51.2119306,49.9192641 C51.1665944,49.2298701 50.5861171,48.6467532 49.9151844,48.617316 L49.9151844,48.617316 Z" id="Shape" sketch:type="MSShapeGroup"></path>
        </g>
    </g>
</svg>