<?xml version="1.0" encoding="UTF-8" standalone="no"?>
<svg width="163px" height="163px" viewBox="0 0 163 163" version="1.1" xmlns="http://www.w3.org/2000/svg" xmlns:xlink="http://www.w3.org/1999/xlink" xmlns:sketch="http://www.bohemiancoding.com/sketch/ns">
    <!-- Generator: Sketch 3.0.4 (8053) - http://www.bohemiancoding.com/sketch -->
    <title>smedresmanlaw 2</title>
    <desc>Created with Sketch.</desc>
    <defs></defs>
    <g id="Page-2" stroke="none" stroke-width="1" fill="none" fill-rule="evenodd" sketch:type="MSPage">
        <circle id="O-3" stroke="#43414A" stroke-width="3" sketch:type="MSShapeGroup" cx="81.5" cy="81.5" r="79.5"></circle>
        <g id="icon---worker-2" sketch:type="MSLayerGroup" transform="translate(41.000000, 46.000000)" fill="#43414A">
            <path d="M45.2861232,13.5737179 C49.0463841,13.5737179 52.1104674,10.5394872 52.1104674,6.79 C52.1107681,3.04320513 49.0463841,0 45.2861232,0 C41.5090217,0 38.4575688,3.04320513 38.4575688,6.79 C38.4578696,10.5394872 41.5093225,13.5737179 45.2861232,13.5737179 L45.2861232,13.5737179 Z" id="Shape" sketch:type="MSShapeGroup"></path>
            <path d="M43.6243188,58.9639316 C42.6277174,59.6259402 40.9499746,60.782735 40.9499746,60.782735 L40.1196739,62.7669658 L38.9579746,64.0879915 L36.7957645,64.0879915 L31.6308188,67.9050855 L83.0760833,67.9050855 L80.7499783,65.5834188 L78.9062355,63.7571368 L75.9164312,63.9228632 L73.9229275,61.7744017 C73.9229275,61.7744017 72.4271232,59.2950855 72.4271232,58.7922222 C72.4271232,58.2971368 72.7609275,56.469359 72.2596196,56.1486752 C71.7619203,55.8100427 70.0868841,54.8174786 70.0868841,54.8174786 L66.0986739,54.9832051 L63.9250362,52.3396581 L61.7628261,49.3562821 L59.1041196,48.8534188 C59.1041196,48.8534188 57.4293841,49.0188462 56.7795181,49.8447863 C56.0998804,50.6782051 54.6055797,51.3387179 53.1100761,52.0073077 C52.6917681,52.1921795 52.260529,52.4030769 51.8545507,52.6109829 L31.732163,36.2967949 L41.4491775,17.5571368 L31.6308188,3.47846154 L10.9842681,3.47846154 L8.27173188,17.2762393 L4.26217029,14.0254274 C3.40119565,13.3344017 2.14837681,13.4540598 1.43716304,14.3105128 C0.74248913,15.1669658 0.879318841,16.4144017 1.7417971,17.1054274 L9.52394928,23.4161966 L4.62303986,28.6820513 L4.98902174,47.0486752 L0.139836957,64.8771368 C-0.436050725,66.9950855 0.819173913,69.1815385 2.94800362,69.7517094 C3.29473913,69.843547 3.65681159,69.8878205 3.98941304,69.8878205 C5.75767391,69.8878205 7.37346739,68.7232479 7.85703261,66.9505128 L12.9916051,48.0188034 L13.774692,33.705 L23.9885036,45.6974359 L14.4579384,63.1869658 C13.4153261,65.1254274 14.125337,67.5374359 16.072529,68.5808547 C16.6778877,68.9117094 17.3277536,69.0618803 17.9776196,69.0618803 C19.3964384,69.0618803 20.77075,68.3107265 21.4948949,66.9810256 L33.6098877,44.7210256 L28.7525833,39.0091453 L48.7904674,55.2581197 L47.4447246,57.1313675 C47.4447246,57.1313675 44.6206196,58.2971368 43.6243188,58.9639316 L43.6243188,58.9639316 Z M26.0626014,31.7004274 L21.9291413,28.3491026 L29.6385181,25.0079487 L26.0626014,31.7004274 L26.0626014,31.7004274 Z M15.8154094,10.7647436 L20.8026268,11.4252564 L14.3211087,18.0510256 L15.8154094,10.7647436 L15.8154094,10.7647436 Z" id="Shape" sketch:type="MSShapeGroup"></path>
        </g>
    </g>
</svg>