<?xml version="1.0" encoding="UTF-8" standalone="no"?>
<svg width="163px" height="163px" viewBox="0 0 163 163" version="1.1" xmlns="http://www.w3.org/2000/svg" xmlns:xlink="http://www.w3.org/1999/xlink" xmlns:sketch="http://www.bohemiancoding.com/sketch/ns">
    <!-- Generator: Sketch 3.0.4 (8053) - http://www.bohemiancoding.com/sketch -->
    <title>smedresmanlaw 2</title>
    <desc>Created with Sketch.</desc>
    <defs></defs>
    <g id="Page-2" stroke="none" stroke-width="1" fill="none" fill-rule="evenodd" sketch:type="MSPage">
        <circle id="O-3" stroke="#43414A" stroke-width="3" sketch:type="MSShapeGroup" cx="81.5" cy="81.5" r="79.5"></circle>
        <g id="icon---car-2" sketch:type="MSLayerGroup" transform="translate(30.000000, 64.000000)" fill="#43414A">
            <path d="M22.1770667,20.9991818 C17.9112,20.9991818 14.45,24.4177576 14.45,28.6480909 C14.45,32.8739394 17.9055333,36.2925152 22.1770667,36.2925152 C26.4508667,36.2925152 29.9086667,32.8638485 29.9086667,28.6480909 C29.9086667,24.4177576 26.4486,20.9991818 22.1770667,20.9991818 L22.1770667,20.9991818 Z M22.1589333,32.8089091 C20.4374,32.8089091 18.9640667,31.7998182 18.2795333,30.3534545 C18.0211333,29.8074242 17.8658667,29.2053333 17.867,28.5628788 C17.867,26.2161818 19.7846,24.3146061 22.1589333,24.3146061 C24.531,24.3146061 26.4508667,26.2139394 26.4508667,28.5628788 C26.4508667,30.9073333 24.5321333,32.8089091 22.1589333,32.8089091 L22.1589333,32.8089091 Z" id="Shape" sketch:type="MSShapeGroup"></path>
            <path d="M99.4341333,21.8389697 L100.220667,18.6390303 L96.6064667,16.7060606 L96.8569333,14.0936364 L94.5698667,14.1070909 L91.6390667,10.2108788 L83.9335333,11.935303 C83.9335333,11.935303 67.4378667,2.405 63.3510667,1.53942424 C59.2631333,0.673848485 39.6394667,-2.15272727 30.5138667,1.14251515 C26.2729333,2.67745455 17.6584667,8.47748485 14.7401333,9.19954545 C11.8240667,9.92160606 3.64933333,8.91251515 2.47973333,9.92160606 C1.3124,10.930697 1.3124,17.427 1.3124,18.1490606 C1.3124,18.8655152 0.658466667,19.520303 0.145066667,20.0259697 C-0.3638,20.5260303 0.145066667,25.0815152 1.01773333,26.0883636 C1.89493333,27.099697 12.2581333,28.6862121 12.6956,28.6862121 C13.1353333,28.6862121 13.2826667,20.0259697 21.8257333,20.0932424 C30.3608667,20.1661212 31.3854,28.6862121 31.3854,28.6862121 L31.3854,30.8546364 L78.0946,30.8546364 L78.0946,29.1212424 C78.0946,29.1212424 78.37,20.6717879 86.2784,19.8230303 L86.6875333,20.7368182 C82.6982,21.0361818 79.5520667,24.3258182 79.5520667,28.3565758 C79.5520667,32.5824242 83.0098667,36.001 87.2791333,36.001 C91.5484,36.001 95.0084667,32.5723333 95.0084667,28.3565758 C95.0084667,27.5313636 94.8736,26.7386667 94.6299333,25.995303 L95.727,25.6297879 C96.4942667,27.5818182 96.6314,29.2703636 96.6314,29.2703636 L102.056667,29.2703636 L102.056667,23.8380909 L99.4341333,21.8389697 L99.4341333,21.8389697 Z M31.0918667,11.9364242 C31.0918667,11.9364242 30.6566667,6.88312121 31.9713333,5.0039697 C33.2803333,3.13266667 36.1975333,2.69427273 37.5167333,2.69427273 L46.8225333,2.69427273 L47.8448,11.935303 L31.0918667,11.935303 L31.0918667,11.9364242 Z M73.3402667,11.9364242 L51.2312,11.9364242 L49.7941333,2.69763636 C51.3989333,2.69539394 59.4875333,3.12818182 62.6971333,3.996 C65.9056,4.86606061 73.3402667,9.05154545 73.3402667,9.05154545 L73.3402667,11.9364242 L73.3402667,11.9364242 Z M91.5540667,28.2736061 C91.5540667,30.6180606 89.6319333,32.5196364 87.2621333,32.5196364 C84.8946,32.5196364 82.9702,30.6180606 82.9702,28.2736061 L82.9702,28.2724848 L82.9702,28.2713636 C82.9702,25.9269091 84.8912,24.0253333 87.2621333,24.0253333 C88.6493333,24.0253333 89.8699333,24.6868485 90.6542,25.6970606 C91.2106667,26.4135152 91.5540667,27.2981515 91.5540667,28.2713636 L91.5540667,28.2724848 L91.5540667,28.2736061 L91.5540667,28.2736061 Z" id="Shape" sketch:type="MSShapeGroup"></path>
        </g>
    </g>
</svg>