<?xml version="1.0" encoding="UTF-8" standalone="no"?>
<svg width="163px" height="163px" viewBox="0 0 163 163" version="1.1" xmlns="http://www.w3.org/2000/svg" xmlns:xlink="http://www.w3.org/1999/xlink" xmlns:sketch="http://www.bohemiancoding.com/sketch/ns">
    <!-- Generator: Sketch 3.0.4 (8053) - http://www.bohemiancoding.com/sketch -->
    <title>smedresmanlaw 2</title>
    <desc>Created with Sketch.</desc>
    <defs></defs>
    <g id="Page-2" stroke="none" stroke-width="1" fill="none" fill-rule="evenodd" sketch:type="MSPage">
        <circle id="O-3" stroke="#43414A" stroke-width="3" sketch:type="MSShapeGroup" cx="81.5" cy="81.5" r="79.5"></circle>
        <g id="icon---handcuffs-2" sketch:type="MSLayerGroup" transform="translate(29.000000, 44.000000)" fill="#43414A">
            <path d="M22.3982317,31.7155862 C10.2419878,31.7155862 0.386243902,41.6113103 0.386243902,53.8184828 C0.386243902,66.0243448 10.2406829,75.9226897 22.3982317,75.9226897 C34.5544756,75.9226897 44.4102195,66.0243448 44.4102195,53.8184828 C44.4102195,41.6113103 34.5544756,31.7155862 22.3982317,31.7155862 L22.3982317,31.7155862 Z M22.3982317,70.2449655 C13.3632561,70.2449655 6.03897561,62.8913103 6.03897561,53.8184828 C6.03897561,44.7443448 13.3632561,37.3906897 22.3982317,37.3906897 C31.4319024,37.3906897 38.7574878,44.7443448 38.7574878,53.8184828 C38.7574878,62.8913103 31.4305976,70.2449655 22.3982317,70.2449655 L22.3982317,70.2449655 Z" id="Shape" sketch:type="MSShapeGroup"></path>
            <rect id="Rectangle-path" sketch:type="MSShapeGroup" x="13.0487805" y="24.8965517" width="3.34962195" height="11.9909655"></rect>
            <rect id="Rectangle-path" sketch:type="MSShapeGroup" x="28.7073171" y="26.2068966" width="3.35092683" height="9.83544828"></rect>
            <rect id="Rectangle-path" sketch:type="MSShapeGroup" x="14.3536585" y="24.8965517" width="16.6476341" height="3.09634483"></rect>
            <path d="M85.0897927,22.9546207 C72.9322439,22.9546207 63.0791098,32.8503448 63.0791098,45.0588276 C63.0791098,57.266 72.9322439,67.1630345 85.0897927,67.1630345 C97.2460366,67.1630345 107.10178,57.266 107.10178,45.0588276 C107.10178,32.8503448 97.2460366,22.9546207 85.0897927,22.9546207 L85.0897927,22.9546207 Z M85.0871829,61.4866207 C76.0522073,61.4866207 68.7292317,54.1329655 68.7292317,45.0588276 C68.7292317,35.9846897 76.0522073,28.6310345 85.0871829,28.6310345 C94.1221585,28.6310345 101.449049,35.9846897 101.449049,45.0588276 C101.449049,54.1329655 94.1221585,61.4866207 85.0871829,61.4866207 L85.0871829,61.4866207 Z" id="Shape" sketch:type="MSShapeGroup"></path>
            <rect id="Rectangle-path" sketch:type="MSShapeGroup" transform="translate(67.215182, 29.400076) rotate(-30.604115) translate(-67.215182, -29.400076) " x="65.2578771" y="23.5035616" width="3.34699094" height="11.9908894"></rect>
            <rect id="Rectangle-path" sketch:type="MSShapeGroup" transform="translate(80.131648, 21.471966) rotate(-30.604115) translate(-80.131648, -21.471966) " x="78.1743429" y="15.5754512" width="3.34699094" height="11.9908894"></rect>
            <rect id="Rectangle-path" sketch:type="MSShapeGroup" transform="translate(72.173914, 20.784690) rotate(-30.583487) translate(-72.173914, -20.784690) " x="63.6920954" y="19.4743276" width="16.6478526" height="3.09638547"></rect>
            <path d="M21.2877805,15.7437931 C19.2965366,15.7437931 17.6810976,17.366 17.6810976,19.3655862 L17.6810976,24.7524138 C17.6810976,26.7533103 19.2965366,28.3755172 21.2877805,28.3755172 C23.2803293,28.3755172 24.8944634,26.7533103 24.8944634,24.7524138 L24.8944634,19.3655862 C24.8957683,17.3646897 23.2803293,15.7437931 21.2877805,15.7437931 L21.2877805,15.7437931 Z M23.369061,23.6137241 C23.369061,24.7668276 22.4386829,25.7037241 21.2877805,25.7037241 C20.1381829,25.7037241 19.2065,24.7681379 19.2065,23.6137241 L19.2065,20.5055862 C19.2065,19.3524828 20.1381829,18.4155862 21.2877805,18.4155862 C22.437378,18.4155862 23.369061,19.3511724 23.369061,20.5055862 L23.369061,23.6137241 L23.369061,23.6137241 Z" id="Shape" sketch:type="MSShapeGroup"></path>
            <path d="M28.8769512,8.1202069 C27.2380244,6.98413793 24.9910244,7.39689655 23.8596951,9.04268966 L20.8128049,13.4755862 C19.6814756,15.1213793 20.0925122,17.3777931 21.7327439,18.5138621 C23.3716707,19.649931 25.6186707,19.2371724 26.75,17.5913793 L29.7981951,13.1584828 C30.9295244,11.5126897 30.5171829,9.25627586 28.8769512,8.1202069 L28.8769512,8.1202069 Z M26.1380122,15.7831034 C25.4855732,16.7317931 24.1885244,16.9715862 23.2437927,16.3151034 C22.2977561,15.659931 22.0615732,14.3574483 22.7140122,13.4074483 L24.4729878,10.8496552 C25.1254268,9.90096552 26.4211707,9.66117241 27.3672073,10.3176552 C28.3132439,10.9728276 28.5494268,12.2753103 27.8969878,13.2253103 L26.1380122,15.7831034 L26.1380122,15.7831034 Z" id="Shape" sketch:type="MSShapeGroup"></path>
            <path d="M38.231622,3.46717241 C37.2607927,1.72048276 35.063378,1.09413793 33.3239756,2.07165517 L28.6394634,4.69758621 C26.9013659,5.67248276 26.2776341,7.87910345 27.2497683,9.6257931 C28.2219024,11.3724828 30.4193171,11.9975172 32.1574146,11.0213103 L36.8419268,8.39537931 C38.5787195,7.42048276 39.2037561,5.21386207 38.231622,3.46717241 L38.231622,3.46717241 Z M32.4053415,9.12917241 C31.4005854,9.69131034 30.1322439,9.33096552 29.5724512,8.32331034 C29.0113537,7.31565517 29.3715,6.04331034 30.3749512,5.47986207 L33.0773537,3.9637931 C34.0808049,3.40165517 35.3491463,3.762 35.908939,4.76965517 C36.4700366,5.77731034 36.1085854,7.04965517 35.106439,7.61310345 L32.4053415,9.12917241 L32.4053415,9.12917241 Z" id="Shape" sketch:type="MSShapeGroup"></path>
            <path d="M59.0874878,7.8162069 C59.8730244,5.97648276 59.0235488,3.84717241 57.1915,3.06096552 L52.2616707,0.942137931 C50.4309268,0.152 48.3105,1.00634483 47.5262683,2.84475862 C46.7420366,4.68317241 47.5915122,6.8137931 49.4222561,7.6 L54.3520854,9.72144828 C56.185439,10.5076552 58.304561,9.65593103 59.0874878,7.8162069 L59.0874878,7.8162069 Z M51.0664024,6.63951724 C50.0094512,6.18613793 49.5188171,4.95703448 49.9703049,3.89696552 C50.4230976,2.83558621 51.6470732,2.3442069 52.7040244,2.79758621 L55.5499634,4.02144828 C56.6056098,4.47613793 57.0975488,5.70524138 56.6434512,6.76531034 C56.1919634,7.82668966 54.9705976,8.31806897 53.9110366,7.86206897 L51.0664024,6.63951724 L51.0664024,6.63951724 Z" id="Shape" sketch:type="MSShapeGroup"></path>
            <path d="M68.1250732,13.5450345 C69.239439,11.8861379 68.8049146,9.63496552 67.1503293,8.51724138 L62.7033049,5.50737931 C61.0526341,4.38703448 58.8134634,4.82468966 57.6977927,6.48489655 C56.5834268,8.1437931 57.0179512,10.3949655 58.6712317,11.5113793 L63.119561,14.5238621 C64.7702317,15.6415862 67.0120122,15.203931 68.1250732,13.5450345 L68.1250732,13.5450345 Z M60.465439,10.8771724 C59.512878,10.2324828 59.2610366,8.93262069 59.9017317,7.97737931 C60.5437317,7.02082759 61.8381707,6.76793103 62.7920366,7.41131034 L65.3587317,9.15013793 C66.3099878,9.79613793 66.564439,11.0946897 65.9198293,12.0512414 C65.2791341,13.0091034 63.9846951,13.2606897 63.0295244,12.6146897 L60.465439,10.8771724 L60.465439,10.8771724 Z" id="Shape" sketch:type="MSShapeGroup"></path>
            <path d="M71.2437317,23.4761379 C73.0966585,22.7371034 74.000939,20.630069 73.2636829,18.772 L71.2815732,13.7677931 C70.5443171,11.9084138 68.4460732,11.0016552 66.5957561,11.7406897 C64.745439,12.4797241 63.8424634,14.5867586 64.5784146,16.4448276 L66.5618293,21.4503448 C67.2977805,23.3097241 69.3934146,24.2151724 71.2437317,23.4761379 L71.2437317,23.4761379 Z M66.4156829,16.9375172 C65.9889878,15.8656552 66.510939,14.6483448 67.5783293,14.2224828 C68.6457195,13.7966207 69.8553415,14.3194483 70.2833415,15.3913103 L71.4251098,18.2806207 C71.8491951,19.3524828 71.3298537,20.5684828 70.2598537,20.9943448 C69.1937683,21.4215172 67.9828415,20.8973793 67.5574512,19.8242069 L66.4156829,16.9375172 L66.4156829,16.9375172 Z" id="Shape" sketch:type="MSShapeGroup"></path>
            <path d="M49.3948537,3.9782069 C49.4614024,1.97862069 47.9020732,0.302689655 45.9108293,0.237172414 L40.5503902,0.0563448276 C38.5591463,-0.0117931034 36.8902073,1.55537931 36.8236585,3.55496552 C36.7571098,5.55324138 38.3177439,7.23048276 40.3076829,7.29468966 L45.6707317,7.47682759 C47.6593659,7.54234483 49.3283049,5.97648276 49.3948537,3.9782069 L49.3948537,3.9782069 Z M41.4925122,5.8022069 C40.3455244,5.7642069 39.4438537,4.79717241 39.4816951,3.64406897 C39.5195366,2.49096552 40.4838415,1.58682759 41.6321341,1.62351724 L44.7246951,1.72834483 C45.8729878,1.76765517 46.7746585,2.73337931 46.7355122,3.88648276 C46.6976707,5.03958621 45.7346707,5.94372414 44.5850732,5.90572414 L41.4925122,5.8022069 L41.4925122,5.8022069 Z" id="Shape" sketch:type="MSShapeGroup"></path>
            <path d="M15.5541463,28.3742069 L15.5541463,32.5935172 L29.2423171,32.5935172 L29.2423171,28.3742069 L15.5541463,28.3742069 L15.5541463,28.3742069 Z M24.2185366,31.0944828 L20.0859878,31.0944828 C19.9033049,31.5583448 19.4583415,31.8898621 18.9298659,31.8898621 C18.2408902,31.8898621 17.6810976,31.3277241 17.6810976,30.6358621 C17.6810976,29.944 18.2408902,29.3818621 18.9298659,29.3818621 C19.4583415,29.3818621 19.9046098,29.7133793 20.0859878,30.1785517 L24.2172317,30.1785517 L24.2172317,31.0944828 L24.2185366,31.0944828 Z" id="Shape" sketch:type="MSShapeGroup"></path>
            <path d="M77.4732195,18.3697241 L66.0842439,25.9946207 L69.7796585,31.5622759 L81.169939,23.9373793 L77.4732195,18.3697241 L77.4732195,18.3697241 Z M71.4172805,27.242069 C71.4172805,27.933931 70.8574878,28.496069 70.1685122,28.496069 C69.4808415,28.496069 68.9210488,27.933931 68.9210488,27.242069 C68.9210488,26.5502069 69.4808415,25.988069 70.1685122,25.988069 C70.4451463,25.988069 70.6878537,26.0968276 70.8953293,26.2488276 L74.5542073,24.206 L74.996561,25.0066207 L71.3755244,27.0271724 C71.3872683,27.1005517 71.4172805,27.166069 71.4172805,27.242069 L71.4172805,27.242069 Z" id="Shape" sketch:type="MSShapeGroup"></path>
        </g>
    </g>
</svg>