<?xml version="1.0" encoding="UTF-8" standalone="no"?>
<svg width="163px" height="163px" viewBox="0 0 163 163" version="1.1" xmlns="http://www.w3.org/2000/svg" xmlns:xlink="http://www.w3.org/1999/xlink" xmlns:sketch="http://www.bohemiancoding.com/sketch/ns">
    <!-- Generator: Sketch 3.0.4 (8053) - http://www.bohemiancoding.com/sketch -->
    <title>smedresmanlaw 2</title>
    <desc>Created with Sketch.</desc>
    <defs></defs>
    <g id="Page-2" stroke="none" stroke-width="1" fill="none" fill-rule="evenodd" sketch:type="MSPage">
        <circle id="O-2" stroke="#43414A" stroke-width="3" sketch:type="MSShapeGroup" cx="81.5" cy="81.5" r="79.5"></circle>
        <g id="icon---building-2" sketch:type="MSLayerGroup" transform="translate(58.000000, 46.000000)" fill="#43414A">
            <path d="M47.991,75.885 L46.454,75.885 L46.454,1.597 L47.991,1.597 C48.236,1.597 48.435,1.319 48.435,0.967 C48.435,0.615 48.236,0.338 47.991,0.338 L0.009,0.338 C-0.237,0.338 -0.436,0.616 -0.436,0.967 C-0.436,1.319 -0.237,1.597 0.009,1.597 L1.125,1.597 L1.125,75.885 L0.009,75.885 C-0.237,75.885 -0.436,76.938 -0.436,77.774 C-0.436,78.61 -0.237,79.663 0.009,79.663 L47.991,79.663 C48.236,79.663 48.435,78.61 48.435,77.774 C48.435,76.938 48.236,75.885 47.991,75.885 L47.991,75.885 Z M7.421,12.349 L7.421,12.076 L7.421,6.343 L7.421,6.07 L7.421,6.634 L12.457,6.634 L12.457,6.07 L12.457,6.343 L12.457,12.076 L12.457,12.349 L12.457,12.93 L7.421,12.93 L7.421,12.349 L7.421,12.349 Z M7.421,24.635 L7.421,24.362 L7.421,18.629 L7.421,18.355 L7.421,17.966 L12.457,17.966 L12.457,18.355 L12.457,18.629 L12.457,24.362 L12.457,24.635 L12.457,25.52 L7.421,25.52 L7.421,24.635 L7.421,24.635 Z M7.421,36.921 L7.421,36.648 L7.421,30.913 L7.421,30.64 L7.421,30.557 L12.457,30.557 L12.457,30.64 L12.457,30.913 L12.457,36.648 L12.457,36.921 L12.457,36.852 L7.421,36.852 L7.421,36.921 L7.421,36.921 Z M7.421,49.207 L7.421,48.935 L7.421,43.2 L7.421,42.928 L7.421,43.149 L12.457,43.149 L12.457,42.928 L12.457,43.2 L12.457,48.935 L12.457,49.207 L12.457,49.443 L7.421,49.443 L7.421,49.207 L7.421,49.207 Z M7.421,61.493 L7.421,61.221 L7.421,55.486 L7.421,55.214 L7.421,55.74 L12.457,55.74 L12.457,55.214 L12.457,55.486 L12.457,61.221 L12.457,61.493 L12.457,62.034 L7.421,62.034 L7.421,61.493 L7.421,61.493 Z M13.717,66.68 L13.717,66.953 L13.717,72.686 L13.717,72.959 L13.717,73.365 L7.422,73.365 L7.422,72.96 L7.422,72.687 L7.422,66.954 L7.422,66.68 L7.422,67.072 L13.717,67.072 L13.717,66.68 L13.717,66.68 Z M22.531,55.213 L22.531,55.485 L22.531,61.22 L22.531,61.492 L22.531,62.033 L16.235,62.033 L16.235,61.492 L16.235,61.22 L16.235,55.485 L16.235,55.213 L16.235,55.739 L22.531,55.739 L22.531,55.213 L22.531,55.213 Z M22.531,42.927 L22.531,43.199 L22.531,48.934 L22.531,49.206 L22.531,49.442 L16.235,49.442 L16.235,49.206 L16.235,48.934 L16.235,43.199 L16.235,42.927 L16.235,43.148 L22.531,43.148 L22.531,42.927 L22.531,42.927 Z M22.531,30.64 L22.531,30.913 L22.531,36.648 L22.531,36.921 L22.531,36.852 L16.235,36.852 L16.235,36.921 L16.235,36.648 L16.235,30.913 L16.235,30.64 L16.235,30.557 L22.531,30.557 L22.531,30.64 L22.531,30.64 Z M22.531,18.354 L22.531,18.628 L22.531,24.361 L22.531,24.634 L22.531,25.519 L16.235,25.519 L16.235,24.634 L16.235,24.361 L16.235,18.628 L16.235,18.354 L16.235,17.965 L22.531,17.965 L22.531,18.354 L22.531,18.354 Z M22.531,6.069 L22.531,6.342 L22.531,12.075 L22.531,12.348 L22.531,12.929 L16.235,12.929 L16.235,12.348 L16.235,12.075 L16.235,6.342 L16.235,6.069 L16.235,6.633 L22.531,6.633 L22.531,6.069 L22.531,6.069 Z M31.345,55.213 L31.345,55.485 L31.345,61.22 L31.345,61.492 L31.345,62.033 L26.308,62.033 L26.308,61.492 L26.308,61.22 L26.308,55.485 L26.308,55.213 L26.308,55.739 L31.345,55.739 L31.345,55.213 L31.345,55.213 Z M31.345,42.927 L31.345,43.199 L31.345,48.934 L31.345,49.206 L31.345,49.442 L26.308,49.442 L26.308,49.206 L26.308,48.934 L26.308,43.199 L26.308,42.927 L26.308,43.148 L31.345,43.148 L31.345,42.927 L31.345,42.927 Z M31.345,30.64 L31.345,30.913 L31.345,36.648 L31.345,36.921 L31.345,36.852 L26.308,36.852 L26.308,36.921 L26.308,36.648 L26.308,30.913 L26.308,30.64 L26.308,30.557 L31.345,30.557 L31.345,30.64 L31.345,30.64 Z M31.345,18.354 L31.345,18.628 L31.345,24.361 L31.345,24.634 L31.345,25.519 L26.308,25.519 L26.308,24.634 L26.308,24.361 L26.308,18.628 L26.308,18.354 L26.308,17.965 L31.345,17.965 L31.345,18.354 L31.345,18.354 Z M31.345,6.069 L31.345,6.342 L31.345,12.075 L31.345,12.348 L31.345,12.929 L26.308,12.929 L26.308,12.348 L26.308,12.075 L26.308,6.342 L26.308,6.069 L26.308,6.633 L31.345,6.633 L31.345,6.069 L31.345,6.069 Z M41.417,66.134 L41.417,66.407 L41.417,72.14 L41.417,72.413 L41.417,73.365 L36.381,73.365 L36.381,72.413 L36.381,72.14 L36.381,66.407 L36.381,66.134 L36.381,65.812 L41.417,65.812 L41.417,66.134 L41.417,66.134 Z M41.417,55.213 L41.417,55.485 L41.417,61.22 L41.417,61.492 L41.417,62.033 L36.381,62.033 L36.381,61.492 L36.381,61.22 L36.381,55.485 L36.381,55.213 L36.381,55.739 L41.417,55.739 L41.417,55.213 L41.417,55.213 Z M41.417,42.927 L41.417,43.199 L41.417,48.934 L41.417,49.206 L41.417,49.442 L36.381,49.442 L36.381,49.206 L36.381,48.934 L36.381,43.199 L36.381,42.927 L36.381,43.148 L41.417,43.148 L41.417,42.927 L41.417,42.927 Z M41.417,30.64 L41.417,30.913 L41.417,36.648 L41.417,36.921 L41.417,36.852 L36.381,36.852 L36.381,36.921 L36.381,36.648 L36.381,30.913 L36.381,30.64 L36.381,30.557 L41.417,30.557 L41.417,30.64 L41.417,30.64 Z M41.417,18.354 L41.417,18.628 L41.417,24.361 L41.417,24.634 L41.417,25.519 L36.381,25.519 L36.381,24.634 L36.381,24.361 L36.381,18.628 L36.381,18.354 L36.381,17.965 L41.417,17.965 L41.417,18.354 L41.417,18.354 Z M41.417,6.069 L41.417,6.342 L41.417,12.075 L41.417,12.348 L41.417,12.929 L36.381,12.929 L36.381,12.348 L36.381,12.075 L36.381,6.342 L36.381,6.069 L36.381,6.633 L41.417,6.633 L41.417,6.069 L41.417,6.069 Z" id="Shape" sketch:type="MSShapeGroup"></path>
        </g>
    </g>
</svg>