<?xml version="1.0" encoding="UTF-8" standalone="no"?>
<svg width="163px" height="163px" viewBox="0 0 163 163" version="1.1" xmlns="http://www.w3.org/2000/svg" xmlns:xlink="http://www.w3.org/1999/xlink" xmlns:sketch="http://www.bohemiancoding.com/sketch/ns">
    <!-- Generator: Sketch 3.0.4 (8053) - http://www.bohemiancoding.com/sketch -->
    <title>smedresmanlaw 2</title>
    <desc>Created with Sketch.</desc>
    <defs></defs>
    <g id="Page-2" stroke="none" stroke-width="1" fill="none" fill-rule="evenodd" sketch:type="MSPage">
        <circle id="O-2" stroke="#43414A" stroke-width="3" sketch:type="MSShapeGroup" cx="81.5" cy="81.5" r="79.5"></circle>
        <g id="icon---death-2" sketch:type="MSLayerGroup" transform="translate(44.000000, 45.000000)" fill="#43414A">
            <path d="M74.19675,65.469 C71.571,62.8965 70.0365,65.51175 65.30925,60.88425 L52.08825,48.066 C52.15875,48.02475 52.2315,47.98275 52.28625,47.943 C54.06075,46.647 55.3185,43.7895 55.9815,41.56725 C56.724,39.0705 57.5565,32.90475 57.5565,30.135 C57.558,27.5985 57.0825,25.173 56.2245,22.94025 L64.7895,14.1075 C69.42075,9.3795 71.004,11.95875 73.578,9.3345 C74.6025,8.28225 74.583,6.2025 73.5315,5.17125 C72.483,4.1445 72.2235,4.41 71.17275,3.3765 C70.119,2.34825 70.37925,2.08575 69.3285,1.0575 C68.2755,0.02775 66.19575,0.05325 65.16825,1.10475 C62.59575,3.72975 65.211,5.265 60.58425,9.9915 L53.17275,17.6355 C52.704,17.049 52.21425,16.4805 51.684,15.951 C49.86825,14.136 47.7075,12.6675 45.3075,11.65275 C42.909,10.63725 40.269,10.077 37.5,10.077 C34.73175,10.077 32.09325,10.63875 29.69325,11.65275 C27.294,12.6675 25.1325,14.136 23.31675,15.951 C22.6005,16.66725 21.957,17.451 21.3555,18.2685 L13.6785,10.8255 C9.16875,5.982 11.82375,4.5135 9.3195,1.82475 C8.319,0.75 6.24,0.6735 5.16225,1.677 C4.083,2.67525 4.3365,2.946 3.26025,3.94875 C2.18475,4.95 1.93425,4.68225 0.855,5.682 C-0.22125,6.68625 -0.294,8.763 0.70725,9.84 C3.21375,12.531 4.86375,9.9885 9.372,14.832 L18.507,23.691 C17.82,25.71525 17.4435,27.87975 17.4435,30.135 C17.4435,32.904 18.276,39.06975 19.01925,41.56725 C19.68,43.79025 20.93925,46.64625 22.713,47.94375 C22.878,48.063 23.12775,48.19425 23.412,48.33075 L10.5255,61.6215 C5.68125,66.132 4.21425,63.47625 1.52475,65.98125 C0.44925,66.981 0.3735,69.06 1.37625,70.137 C2.37525,71.217 2.646,70.9635 3.64725,72.0405 C4.64925,73.116 4.3815,73.36575 5.3805,74.44425 C6.3855,75.5205 8.4615,75.59475 9.53925,74.59275 C12.231,72.08625 9.68775,70.437 14.53125,65.92725 L26.7345,53.34375 C27.4635,57.75825 27.906,64.14675 29.5845,64.99875 C32.0175,66.234 34.6935,66.7665 37.50075,66.7665 C40.308,66.7665 42.98175,66.234 45.417,64.99875 C47.18325,64.1025 47.58075,57.06825 48.384,52.66425 L61.1955,65.08875 C65.922,69.71925 63.3435,71.30325 65.96775,73.87725 C67.02,74.90175 69.1005,74.88225 70.131,73.83075 C71.157,72.78225 70.893,72.52275 71.92575,71.472 C72.954,70.419 73.2165,70.6785 74.244,69.62775 C75.27225,68.577 75.24675,66.4965 74.19675,65.469 L74.19675,65.469 Z M41.427,37.0515 C41.427,34.5225 43.479,34.89075 46.0065,34.89075 C48.5355,34.89075 50.586,36.94125 50.586,39.4695 L50.586,41.097 C50.586,43.626 48.5355,43.2585 46.0065,43.2585 C43.4775,43.2585 41.427,41.21025 41.427,38.6805 L41.427,37.0515 L41.427,37.0515 L41.427,37.0515 Z M33.57075,38.67975 C33.57075,41.2095 31.521,43.25775 28.99275,43.25775 C26.4645,43.25775 24.41475,43.62525 24.41475,41.097 L24.41475,39.46875 C24.41475,36.93975 26.4645,34.89 28.99275,34.89 C31.5225,34.89 33.57075,34.5225 33.57075,37.05075 L33.57075,38.67975 L33.57075,38.67975 Z M39.8745,48.43575 C39.7095,48.7215 39.35775,48.8985 38.85975,48.8985 C38.85975,48.8985 38.046,48.70875 37.5,48.70875 C36.951,48.70875 36.141,48.8985 36.141,48.8985 C35.64225,48.8985 35.29125,48.7215 35.127,48.43575 C34.96275,48.1515 34.9845,47.76 35.235,47.328 L35.91375,45.546 L36.5955,43.7625 C36.8445,43.332 37.173,43.1175 37.50075,43.1175 C37.83,43.1175 38.15775,43.33275 38.4075,43.7625 L39.08775,45.546 L39.76725,47.328 C40.0155,47.76 40.0395,48.1515 39.8745,48.43575 L39.8745,48.43575 Z" id="Shape" sketch:type="MSShapeGroup"></path>
        </g>
    </g>
</svg>