<?xml version="1.0" encoding="UTF-8" standalone="no"?>
<svg width="163px" height="163px" viewBox="0 0 163 163" version="1.1" xmlns="http://www.w3.org/2000/svg" xmlns:xlink="http://www.w3.org/1999/xlink" xmlns:sketch="http://www.bohemiancoding.com/sketch/ns">
    <!-- Generator: Sketch 3.0.4 (8053) - http://www.bohemiancoding.com/sketch -->
    <title>smedresmanlaw 2</title>
    <desc>Created with Sketch.</desc>
    <defs></defs>
    <g id="Page-2" stroke="none" stroke-width="1" fill="none" fill-rule="evenodd" sketch:type="MSPage">
        <circle id="O-2" stroke="#43414A" stroke-width="3" sketch:type="MSShapeGroup" cx="81.5" cy="81.5" r="79.5"></circle>
        <g id="icon---medical-2" sketch:type="MSLayerGroup" transform="translate(37.000000, 47.000000)" fill="#43414A">
            <path d="M0.0448979592,12.4677447 C0.0448979592,12.4677447 5.06628571,15.9814468 23.1422041,8.46791489 C23.1422041,8.46791489 41.6635102,-1.46910638 36.3080816,13.920766 C36.3080816,13.920766 37.6460408,16.7088511 40.7691429,17.556 L41.2163265,27.3697021 C41.2163265,27.3697021 34.7438367,21.5558298 26.597551,28.4617021 C26.6011429,28.4617021 0.712979592,21.5558298 0.0448979592,12.4677447 L0.0448979592,12.4677447 Z" id="Shape" sketch:type="MSShapeGroup"></path>
            <path d="M87.955102,12.1067234 C87.955102,12.1067234 82.9319184,15.6204255 64.8577959,8.10868085 C64.8577959,8.10868085 46.3364898,-1.83012766 51.6919184,13.5615319 C51.6919184,13.5615319 50.3521633,16.3478298 47.2290612,17.1949787 L46.7818776,27.0104681 C46.7818776,27.0104681 53.2543673,21.1948085 61.4006531,28.1024681 C61.3988571,28.1042553 87.2852245,21.1948085 87.955102,12.1067234 L87.955102,12.1067234 Z" id="Shape" sketch:type="MSShapeGroup"></path>
            <path d="M49.2207347,26.9264681 C61.072,28.4831489 54.9048163,33.0084255 52.1570612,34.6598298 C50.3970612,33.6589787 48.2563265,32.9994894 45.914449,32.7975319 L46.2592653,11.4204255 C48.1126531,10.4606809 49.3949388,8.49114894 49.3949388,6.19455319 C49.3949388,2.95787234 46.8716735,0.337787234 43.7557551,0.337787234 C40.6398367,0.337787234 38.1147755,2.95965957 38.1147755,6.19455319 C38.1147755,8.57157447 39.4850612,10.6090213 41.4426122,11.5276596 L42.5201633,32.8279149 C40.3758367,33.0799149 38.4218776,33.7233191 36.784,34.6526809 C34.1026939,33.0638298 27.5781224,28.4313191 39.6035918,26.849617 C39.6035918,26.849617 19.3133061,24.0954894 33.3771429,37.5354894 C33.4004898,37.5462128 33.4166531,37.5533617 33.44,37.5640851 C32.5653878,38.7865532 32.0212245,40.1448511 32.0212245,41.6139574 C32.0212245,44.8005957 34.3774694,47.5725957 37.8902857,49.1471489 C36.6834286,50.201617 35.9273469,51.5348936 35.9273469,53.004 C35.9273469,55.4685957 37.9962449,57.5525106 40.9379592,58.5122553 C39.7813878,59.2628936 39.0432653,60.3334468 39.0432653,61.5308936 C39.0432653,63.6362553 41.293551,65.3537872 44.176,65.5897021 L45.0883265,83.6622128 L45.3828571,65.5986383 C48.3209796,65.4002553 50.6269388,63.6666383 50.6269388,61.5326809 C50.6269388,60.2440851 49.7756735,59.1109787 48.4700408,58.356766 C51.1549388,57.3344681 52.997551,55.3381277 52.997551,53.0057872 C52.997551,51.5366809 52.2414694,50.2034043 51.0328163,49.1489362 C54.5456327,47.574383 56.9036735,44.802383 56.9036735,41.6157447 C56.9036735,40.1502128 56.363102,38.7883404 55.4866939,37.5694468 C69.4625306,24.1777021 49.2207347,26.9264681 49.2207347,26.9264681 L49.2207347,26.9264681 Z M37.3766531,41.7908936 C37.3766531,39.8499574 39.6754286,38.2307234 42.7733878,37.7660426 L43.1846531,45.8854468 C39.8747755,45.5101277 37.3766531,43.8229787 37.3766531,41.7908936 L37.3766531,41.7908936 Z M40.1782857,53.393617 C40.1782857,52.2158298 41.5647347,51.2328511 43.4378776,50.9433191 L43.6875102,55.8885957 C41.6886531,55.6508936 40.1782857,54.6250213 40.1782857,53.393617 L40.1782857,53.393617 Z M41.8520816,61.5308936 C41.8520816,60.6229787 42.7141224,59.8866383 43.8778776,59.6346383 L44.0700408,63.450383 C42.811102,63.2466383 41.8520816,62.4834894 41.8520816,61.5308936 L41.8520816,61.5308936 Z M45.4187755,63.4360851 L45.4798367,59.6310638 C46.6525714,59.8794894 47.5289796,60.6194043 47.5289796,61.5308936 C47.5289796,62.4566809 46.6220408,63.2037447 45.4187755,63.4360851 L45.4187755,63.4360851 Z M45.539102,55.8689362 L45.6217143,50.9325957 C47.5271837,51.2078298 48.9441633,52.1997447 48.9441633,53.393617 C48.9441633,54.6017872 47.4858776,55.6097872 45.539102,55.8689362 L45.539102,55.8689362 Z M45.7025306,45.8997447 L45.8354286,37.692766 C49.1937959,38.0448511 51.7475918,39.7391489 51.7475918,41.7908936 C51.7475918,43.8694468 49.125551,45.5780426 45.7025306,45.8997447 L45.7025306,45.8997447 Z" id="Shape" sketch:type="MSShapeGroup"></path>
        </g>
    </g>
</svg>